<?xml version="1.0" encoding="UTF-8"?>
<svg xmlns="http://www.w3.org/2000/svg" viewBox="0 0 520 200" width="1040" height="400">

<g transform="translate(20, 50)">
  <path d="M 32 52 C 32 52, 16 41, 14 30 C 12 22, 18 17, 24 19 C 28 20, 31 23, 32 26 C 33 23, 36 20, 40 19 C 46 17, 52 22, 50 30 C 48 41, 32 52, 32 52 Z" stroke="#E89380" stroke-width="2.5" fill="none" stroke-linejoin="round" stroke-linecap="round"></path>
  <path d="M64 50 A 18 18 0 0 1 100 50" stroke="#E8A93A" stroke-width="2.5" fill="none" stroke-linecap="round"></path>
  <line x1="60" y1="50" x2="53" y2="50" stroke="#E8A93A" stroke-width="2" stroke-linecap="round"></line>
  <line x1="66.44" y1="34.44" x2="61.49" y2="29.49" stroke="#E8A93A" stroke-width="2" stroke-linecap="round"></line>
  <line x1="82" y1="28" x2="82" y2="21" stroke="#E8A93A" stroke-width="2" stroke-linecap="round"></line>
  <line x1="97.56" y1="34.44" x2="102.51" y2="29.49" stroke="#E8A93A" stroke-width="2" stroke-linecap="round"></line>
  <line x1="104" y1="50" x2="111" y2="50" stroke="#E8A93A" stroke-width="2" stroke-linecap="round"></line>
  <path d="M6 66 C 28 60, 50 72, 70 66 C 90 60, 110 72, 134 66" stroke="#2E7BA6" stroke-width="2.5" fill="none" stroke-linecap="round"></path>
  <path d="M6 78 C 28 72, 50 84, 70 78 C 90 72, 110 84, 134 78" stroke="#7BB7D6" stroke-width="2" fill="none" stroke-linecap="round"></path>
</g>
<line x1="180" y1="60" x2="180" y2="140" stroke="#0F2238" stroke-opacity="0.18" stroke-width="1"></line>
<text x="200" y="116" font-family="Inter, &#39;Helvetica Neue&#39;, sans-serif" font-size="56" letter-spacing="7.8" fill="#0F2238" font-weight="300">MI-ZA</text>
<text x="200" y="142" font-family="&#39;JetBrains Mono&#39;, &#39;Menlo&#39;, monospace" font-size="9" letter-spacing="1.1" fill="#2C4256" fill-opacity="0.78">THE NEXT CHAPTER OF HEALTHCARE</text>
</svg>