<?xml version="1.0" encoding="UTF-8"?>
<svg xmlns="http://www.w3.org/2000/svg" viewBox="0 14 140 72" width="700" height="360">
  <path d="M 32 52 C 32 52, 16 41, 14 30 C 12 22, 18 17, 24 19 C 28 20, 31 23, 32 26 C 33 23, 36 20, 40 19 C 46 17, 52 22, 50 30 C 48 41, 32 52, 32 52 Z" stroke="#2E7BA6" stroke-width="2.5" fill="none" stroke-linejoin="round" stroke-linecap="round"></path>
  <path d="M64 50 A 18 18 0 0 1 100 50" stroke="#E8A93A" stroke-width="2.5" fill="none" stroke-linecap="round"></path>
  <g stroke="#E8A93A" stroke-width="2" stroke-linecap="round">
    <line x1="60" y1="50" x2="53" y2="50"></line>
    <line x1="66.44" y1="34.44" x2="61.49" y2="29.49"></line>
    <line x1="82" y1="28" x2="82" y2="21"></line>
    <line x1="97.56" y1="34.44" x2="102.51" y2="29.49"></line>
    <line x1="104" y1="50" x2="111" y2="50"></line>
  </g>
  <path d="M6 66 C 28 60, 50 72, 70 66 C 90 60, 110 72, 134 66" stroke="#2E7BA6" stroke-width="2.5" fill="none" stroke-linecap="round"></path>
  <path d="M6 78 C 28 72, 50 84, 70 78 C 90 72, 110 84, 134 78" stroke="#7BB7D6" stroke-width="2" fill="none" stroke-linecap="round"></path>
</svg>